<svg width="22" height="22" viewBox="0 0 22 22" fill="none" xmlns="http://www.w3.org/2000/svg">
<path d="M10.2051 0.949608C6.84492 1.22461 3.8543 3.14101 2.1957 6.08867C0.803516 8.56367 0.541407 11.593 1.47813 14.3043C1.97656 15.7395 2.71563 16.9297 3.79844 18.0383C6.82773 21.1449 11.4984 21.9613 15.4043 20.0664C17.5141 19.0395 19.2629 17.2348 20.1953 15.125C21.7336 11.6488 21.2352 7.71719 18.8805 4.71797C18.3262 4.01328 17.2262 3.01641 16.457 2.52656C15.602 1.98086 14.5406 1.5125 13.5996 1.26758C12.8863 1.07851 12.4094 1.00117 11.6875 0.945311C11.043 0.898045 10.8324 0.898045 10.2051 0.949608ZM11.3352 5.56875C11.5242 5.64609 11.709 5.81367 11.8078 5.99414C11.8723 6.10586 11.8852 6.36367 11.9023 8.09961L11.9238 10.0762L13.9004 10.0977C16.0617 10.1191 15.993 10.1105 16.2508 10.3855C16.5773 10.7293 16.5773 11.2707 16.2508 11.6145C15.993 11.8895 16.0617 11.8809 13.9004 11.9023L11.9238 11.9238L11.9023 13.9004C11.8809 16.0617 11.8895 15.993 11.6145 16.2508C11.2707 16.5773 10.7293 16.5773 10.3855 16.2508C10.1105 15.993 10.1191 16.0617 10.0977 13.9004L10.0762 11.9238L8.09961 11.9023C5.93828 11.8809 6.00703 11.8895 5.74922 11.6145C5.42266 11.2707 5.42266 10.7293 5.74922 10.3855C6.00703 10.1105 5.93828 10.1191 8.09961 10.0977L10.0762 10.0762L10.0977 8.09961C10.1191 5.93828 10.1105 6.00703 10.3855 5.74922C10.6391 5.50859 11.0215 5.43555 11.3352 5.56875Z" fill="#000063"/>
</svg>
