<svg width="15" height="15" viewBox="0 0 15 15" fill="none" xmlns="http://www.w3.org/2000/svg">
<g clip-path="url(#clip0_2_14)">
<path d="M6.03808 0.0468745C5.71582 0.134765 5.41699 0.357421 5.25 0.641601C5.20605 0.714844 5.09765 0.993164 5.00683 1.25977L4.84277 1.74316L3.3955 1.75781C2.47558 1.76953 1.91601 1.78711 1.86035 1.80762C1.5 1.93652 1.18359 2.2002 1.04882 2.49023C0.928708 2.74512 0.90234 2.94434 0.914059 3.58008L0.922848 4.15723L1.00488 4.24219C1.05468 4.29199 1.1455 4.34473 1.21582 4.3623C1.30664 4.38574 3.15234 4.39453 7.54394 4.39453C13.6992 4.39453 13.7432 4.39453 13.8574 4.33594C14.0654 4.23047 14.0918 4.13379 14.0918 3.50391C14.0918 3.20508 14.0771 2.8916 14.0596 2.80664C13.9629 2.36133 13.6494 1.99805 13.2187 1.83398C13.0576 1.77539 12.9932 1.77246 11.6045 1.75781L10.1572 1.74316L10.002 1.2832C9.81738 0.726562 9.73828 0.574219 9.52148 0.36914C9.33398 0.190429 9.1875 0.105468 8.94433 0.0439448C8.7041 -0.0205083 6.27539 -0.0175786 6.03808 0.0468745ZM8.80078 0.919922C8.9414 0.978515 9.00879 1.08105 9.11425 1.40039C9.16406 1.55566 9.21386 1.70215 9.22265 1.71973C9.23144 1.74902 8.87402 1.75781 7.5 1.75781C6.12597 1.75781 5.76855 1.74902 5.77734 1.71973C5.78613 1.70215 5.83593 1.55566 5.88574 1.40039C5.99121 1.08691 6.05859 0.978515 6.19336 0.919922C6.32812 0.861328 8.66015 0.861328 8.80078 0.919922Z" fill="#FF0000"/>
<path d="M1.9043 5.39062C1.9043 5.42578 2.0625 7.3623 2.25586 9.7002C2.63965 14.3408 2.61328 14.1182 2.83301 14.4375C3.01172 14.7012 3.26367 14.8711 3.59473 14.9561C3.73828 14.9941 4.27734 15 7.49121 15C10.1396 15 11.2617 14.9912 11.373 14.9678C11.8125 14.874 12.167 14.5605 12.3252 14.1299C12.3867 13.957 12.4248 13.5703 12.7441 9.69727C12.9375 7.3623 13.0957 5.42578 13.0957 5.39062V5.33203H7.5H1.9043V5.39062ZM5.06836 6.27539C5.32031 6.4043 5.30273 6.12891 5.30273 9.72656C5.30273 13.3242 5.32031 13.0488 5.06836 13.1777C4.9043 13.2598 4.82227 13.2598 4.6582 13.1748C4.40625 13.0488 4.42383 13.3242 4.42383 9.72656C4.42383 6.75879 4.42676 6.54199 4.47656 6.44531C4.53223 6.33398 4.73438 6.21094 4.86328 6.21094C4.9043 6.21094 4.99805 6.24023 5.06836 6.27539ZM7.70508 6.27539C7.95703 6.4043 7.93945 6.12891 7.93945 9.72656C7.93945 13.3242 7.95703 13.0488 7.70508 13.1777C7.54102 13.2598 7.45898 13.2598 7.29492 13.1748C7.04297 13.0488 7.06055 13.3242 7.06055 9.72656C7.06055 6.75879 7.06348 6.54199 7.11328 6.44531C7.16895 6.33398 7.37109 6.21094 7.5 6.21094C7.54102 6.21094 7.63477 6.24023 7.70508 6.27539ZM10.3418 6.26953C10.418 6.30762 10.4795 6.36914 10.5176 6.44531C10.5762 6.55957 10.5762 6.6123 10.5762 9.73242C10.5762 13.3213 10.5938 13.0488 10.3418 13.1777C10.1777 13.2598 10.0957 13.2598 9.93164 13.1777C9.67969 13.0488 9.69727 13.3213 9.69727 9.73242C9.69727 6.6123 9.69727 6.55957 9.75586 6.44531C9.86426 6.23145 10.1191 6.15527 10.3418 6.26953Z" fill="#FF0000"/>
</g>
<defs>
<clipPath id="clip0_2_14">
<rect width="15" height="15" fill="white"/>
</clipPath>
</defs>
</svg>
